<?xml version="1.0" encoding="UTF-8" standalone="no"?>
<svg width="1000" height="1000" viewBox="0 0 1000 1000" xmlns="http://www.w3.org/2000/svg">
  <defs>
    <filter id="glow" x="-20%" y="-20%" width="140%" height="140%">
      <feGaussianBlur stdDeviation="2" result="blur" />
      <feComposite in="SourceGraphic" in2="blur" operator="over" />
    </filter>
  </defs>
  
  <!-- Circuit Lines -->
  <g stroke="#00ffff" stroke-width="1" fill="none" filter="url(#glow)">
    <!-- Horizontal Lines -->
    <path d="M0,100 H400 M450,100 H1000" />
    <path d="M0,200 H300 M350,200 H700 M750,200 H1000" />
    <path d="M0,300 H200 M250,300 H500 M550,300 H800 M850,300 H1000" />
    <path d="M0,400 H150 M200,400 H600 M650,400 H1000" />
    <path d="M0,500 H250 M300,500 H550 M600,500 H900 M950,500 H1000" />
    <path d="M0,600 H350 M400,600 H700 M750,600 H1000" />
    <path d="M0,700 H200 M250,700 H450 M500,700 H800 M850,700 H1000" />
    <path d="M0,800 H300 M350,800 H600 M650,800 H900 M950,800 H1000" />
    <path d="M0,900 H400 M450,900 H1000" />
    
    <!-- Vertical Lines -->
    <path d="M100,0 V300 M100,350 V700 M100,750 V1000" />
    <path d="M200,0 V200 M200,250 V500 M200,550 V800 M200,850 V1000" />
    <path d="M300,0 V400 M300,450 V1000" />
    <path d="M400,0 V250 M400,300 V600 M400,650 V900 M400,950 V1000" />
    <path d="M500,0 V150 M500,200 V700 M500,750 V1000" />
    <path d="M600,0 V350 M600,400 V800 M600,850 V1000" />
    <path d="M700,0 V200 M700,250 V500 M700,550 V900 M700,950 V1000" />
    <path d="M800,0 V300 M800,350 V600 M800,650 V1000" />
    <path d="M900,0 V400 M900,450 V800 M900,850 V1000" />
    
    <!-- Connection Nodes -->
    <circle cx="100" cy="100" r="3" fill="#0077ff" />
    <circle cx="200" cy="200" r="3" fill="#0077ff" />
    <circle cx="300" cy="300" r="3" fill="#0077ff" />
    <circle cx="400" cy="400" r="3" fill="#0077ff" />
    <circle cx="500" cy="500" r="3" fill="#0077ff" />
    <circle cx="600" cy="600" r="3" fill="#0077ff" />
    <circle cx="700" cy="700" r="3" fill="#0077ff" />
    <circle cx="800" cy="800" r="3" fill="#0077ff" />
    <circle cx="900" cy="900" r="3" fill="#0077ff" />
    
    <circle cx="200" cy="100" r="3" fill="#00ff8c" />
    <circle cx="300" cy="200" r="3" fill="#00ff8c" />
    <circle cx="400" cy="300" r="3" fill="#00ff8c" />
    <circle cx="500" cy="400" r="3" fill="#00ff8c" />
    <circle cx="600" cy="500" r="3" fill="#00ff8c" />
    <circle cx="700" cy="600" r="3" fill="#00ff8c" />
    <circle cx="800" cy="700" r="3" fill="#00ff8c" />
    <circle cx="900" cy="800" r="3" fill="#00ff8c" />
    
    <!-- Diagonal Connections -->
    <path d="M100,100 L200,200" />
    <path d="M200,200 L300,300" />
    <path d="M300,300 L400,400" />
    <path d="M400,400 L500,500" />
    <path d="M500,500 L600,600" />
    <path d="M600,600 L700,700" />
    <path d="M700,700 L800,800" />
    <path d="M800,800 L900,900" />
    
    <!-- Additional Circuit Elements -->
    <path d="M250,150 Q300,100 350,150" />
    <path d="M450,250 Q500,200 550,250" />
    <path d="M650,350 Q700,300 750,350" />
    <path d="M850,450 Q900,400 950,450" />
    <path d="M150,550 Q200,500 250,550" />
    <path d="M350,650 Q400,600 450,650" />
    <path d="M550,750 Q600,700 650,750" />
    <path d="M750,850 Q800,800 850,850" />
    
    <!-- Chip-like Structures -->
    <rect x="150" y="150" width="50" height="30" rx="2" ry="2" stroke="#00ffff" stroke-width="1" fill="none" />
    <rect x="450" y="350" width="70" height="40" rx="2" ry="2" stroke="#00ffff" stroke-width="1" fill="none" />
    <rect x="750" y="550" width="60" height="35" rx="2" ry="2" stroke="#00ffff" stroke-width="1" fill="none" />
    <rect x="250" y="650" width="80" height="45" rx="2" ry="2" stroke="#00ffff" stroke-width="1" fill="none" />
    <rect x="550" y="850" width="65" height="38" rx="2" ry="2" stroke="#00ffff" stroke-width="1" fill="none" />
  </g>
</svg>